<?xml version="1.0"?>
<svg xmlns="http://www.w3.org/2000/svg" xmlns:xlink="http://www.w3.org/1999/xlink" xmlns:svgjs="http://svgjs.com/svgjs" version="1.1" width="512" height="512" x="0" y="0" viewBox="0 0 297 297" style="enable-background:new 0 0 512 512" xml:space="preserve" class=""><g>
<path xmlns="http://www.w3.org/2000/svg" d="M296.962,79.335V10.169C296.962,4.554,292.407,0,286.794,0H10.206C4.593,0,0.038,4.554,0.038,10.169v69.166  c0,21.177,14.787,38.952,34.574,43.571v67.3H10.206c-5.613,0-10.168,4.554-10.168,10.168v51.875c0,5.615,4.555,10.168,10.168,10.168  h8.063c-0.611,2.273-0.941,4.659-0.941,7.122C17.327,284.682,29.643,297,44.78,297c15.141,0,27.456-12.318,27.456-27.461  c0-2.463-0.33-4.849-0.941-7.122h154.41c-0.611,2.273-0.941,4.659-0.941,7.122c0,15.143,12.315,27.461,27.456,27.461  c15.138,0,27.453-12.318,27.453-27.461c0-2.463-0.33-4.849-0.941-7.122h8.063c5.613,0,10.168-4.553,10.168-10.168v-51.875  c0-5.614-4.555-10.168-10.168-10.168h-24.406v-67.3C282.175,118.287,296.962,100.512,296.962,79.335z M20.375,79.335V20.338h256.25  v58.997c0,13.462-10.949,24.414-24.405,24.414c-13.458,0-24.406-10.952-24.406-24.414c0-5.617-4.551-10.169-10.168-10.169  c-5.615,0-10.168,4.552-10.168,10.169c0,13.462-10.946,24.414-24.405,24.414c-13.456,0-24.404-10.952-24.404-24.414  c0-5.617-4.554-10.169-10.168-10.169s-10.168,4.552-10.168,10.169c0,13.462-10.948,24.414-24.404,24.414  c-13.459,0-24.405-10.952-24.405-24.414c0-5.617-4.553-10.169-10.168-10.169c-5.617,0-10.168,4.552-10.168,10.169  c0,13.462-10.948,24.414-24.406,24.414C31.324,103.749,20.375,92.797,20.375,79.335z M51.899,269.539  c0,3.928-3.193,7.123-7.119,7.123c-3.923,0-7.117-3.195-7.117-7.123c0-3.928,3.194-7.122,7.117-7.122  C48.706,262.417,51.899,265.611,51.899,269.539z M259.337,269.539c0,3.928-3.193,7.123-7.117,7.123  c-3.926,0-7.119-3.195-7.119-7.123c0-3.928,3.193-7.122,7.119-7.122C256.144,262.417,259.337,265.611,259.337,269.539z   M276.625,242.08H20.375v-31.537h256.25V242.08z M54.949,190.206v-67.288c9.733-2.271,18.256-7.728,24.405-15.209  c8.212,9.993,20.661,16.377,34.573,16.377c13.911,0,26.361-6.384,34.572-16.377c8.212,9.993,20.661,16.377,34.572,16.377  c13.912,0,26.361-6.384,34.573-16.377c6.149,7.481,14.672,12.938,24.405,15.209v67.288H54.949z" fill="#ffffff" data-original="#000000" style="" class=""/>
<g xmlns="http://www.w3.org/2000/svg">
</g>
<g xmlns="http://www.w3.org/2000/svg">
</g>
<g xmlns="http://www.w3.org/2000/svg">
</g>
<g xmlns="http://www.w3.org/2000/svg">
</g>
<g xmlns="http://www.w3.org/2000/svg">
</g>
<g xmlns="http://www.w3.org/2000/svg">
</g>
<g xmlns="http://www.w3.org/2000/svg">
</g>
<g xmlns="http://www.w3.org/2000/svg">
</g>
<g xmlns="http://www.w3.org/2000/svg">
</g>
<g xmlns="http://www.w3.org/2000/svg">
</g>
<g xmlns="http://www.w3.org/2000/svg">
</g>
<g xmlns="http://www.w3.org/2000/svg">
</g>
<g xmlns="http://www.w3.org/2000/svg">
</g>
<g xmlns="http://www.w3.org/2000/svg">
</g>
<g xmlns="http://www.w3.org/2000/svg">
</g>
</g></svg>
